<?xml version="1.0" encoding="UTF-8" ?>
<!DOCTYPE svg PUBLIC "-//W3C//DTD SVG 1.1//EN" "http://www.w3.org/Graphics/SVG/1.1/DTD/svg11.dtd">
<svg width="150pt" height="150pt" viewBox="0 0 150 150" version="1.1" xmlns="http://www.w3.org/2000/svg">
<g id="#000000ff">
<path fill="#000000" opacity="1.00" d=" M 0.00 0.00 L 150.00 0.00 L 150.00 150.00 L 0.00 150.00 L 0.00 0.00 M 5.37 4.24 C 2.82 8.01 1.29 20.08 8.96 18.93 C 53.93 18.77 98.92 19.07 143.88 18.78 C 147.76 19.33 146.91 14.54 147.21 12.03 C 147.21 8.89 147.77 3.21 142.99 3.89 C 97.13 4.04 51.18 3.33 5.37 4.24 M 4.11 22.96 C 4.51 27.60 0.76 37.64 8.02 37.71 C 52.69 37.68 97.38 37.62 142.05 37.74 C 150.11 38.50 146.90 27.51 146.26 22.64 C 98.88 22.76 51.47 22.13 4.11 22.96 M 27.04 52.03 C 27.47 53.49 28.01 54.91 28.43 56.36 C 28.67 55.50 29.13 53.76 29.37 52.89 C 29.89 54.30 30.47 55.69 30.99 57.10 C 21.88 57.53 12.74 56.96 3.63 57.53 C 49.32 58.60 95.07 57.47 140.77 58.10 C 141.58 58.70 142.39 59.29 143.21 59.88 C 144.33 60.98 146.49 59.06 145.57 57.81 C 145.93 57.74 146.64 57.59 147.00 57.52 C 108.86 56.56 70.63 58.17 32.51 56.72 C 34.92 55.99 37.35 54.41 39.73 56.06 C 39.71 54.70 39.68 53.35 39.66 51.99 C 35.46 51.75 31.24 51.70 27.04 52.03 M 3.19 55.70 L 5.07 55.93 C 5.13 55.44 5.26 54.46 5.32 53.97 C 5.56 54.38 6.04 55.19 6.28 55.60 C 12.54 56.17 19.14 54.83 25.14 56.24 C 25.51 54.86 25.87 53.48 26.24 52.11 C 24.40 51.99 22.56 51.89 20.72 51.78 C 20.44 51.91 19.88 52.16 19.60 52.29 C 15.63 52.40 11.38 51.03 7.70 52.98 C 5.36 50.76 3.75 53.56 3.19 55.70 M 40.79 51.98 C 40.79 53.31 40.79 54.64 40.78 55.97 C 41.14 55.79 41.86 55.41 42.22 55.22 C 44.54 55.57 47.42 56.16 49.86 55.14 L 49.95 56.01 C 53.44 57.03 53.52 50.46 49.87 51.92 L 49.80 52.80 C 48.23 52.15 44.62 51.26 44.65 53.75 C 44.53 53.33 44.29 52.49 44.18 52.07 C 42.10 52.46 42.90 52.62 40.79 51.98 M 7.17 63.42 C 6.58 64.28 5.46 64.58 3.83 64.31 C 3.71 64.07 3.46 63.57 3.34 63.33 C 2.94 65.00 4.90 64.93 4.37 66.86 C 4.83 65.82 5.75 65.44 7.15 65.72 C 7.53 65.95 8.30 66.41 8.68 66.64 C 9.23 65.61 10.37 65.29 12.10 65.68 C 12.49 65.92 13.27 66.41 13.66 66.66 C 13.91 66.41 14.41 65.90 14.66 65.65 C 14.66 65.32 14.66 64.67 14.66 64.34 C 13.72 64.07 13.05 63.41 12.65 62.36 C 10.87 62.69 9.62 63.88 7.17 63.42 M 7.08 71.81 C 6.07 71.53 5.06 71.24 4.05 70.96 C 4.04 72.62 4.04 74.28 4.04 75.93 C 5.35 75.61 6.65 75.28 7.96 74.96 C 8.02 73.33 8.08 71.70 8.14 70.07 C 7.88 70.51 7.34 71.37 7.08 71.81 M 8.78 71.00 C 8.85 72.27 8.92 73.53 8.98 74.80 C 10.49 75.03 11.99 75.26 13.50 75.49 C 13.80 74.39 14.10 73.29 14.43 72.20 C 13.86 71.82 12.73 71.06 12.17 70.69 C 12.77 72.30 12.37 73.35 10.96 73.81 C 10.99 73.17 11.04 71.89 11.06 71.25 C 10.49 71.19 9.35 71.06 8.78 71.00 M 14.76 71.10 C 14.80 72.39 14.84 73.67 14.88 74.96 C 15.37 74.96 16.35 74.96 16.83 74.96 C 16.97 73.65 17.10 72.34 17.23 71.03 C 16.61 71.04 15.37 71.08 14.76 71.10 M 19.65 72.96 C 19.32 72.76 18.65 72.36 18.32 72.16 C 18.28 72.84 18.20 74.20 18.16 74.87 C 19.41 74.84 19.46 73.36 20.72 74.82 C 20.73 73.61 20.75 72.39 20.76 71.17 C 20.49 71.62 19.93 72.51 19.65 72.96 M 25.23 71.00 C 25.11 72.35 25.00 73.70 24.89 75.05 L 25.98 75.14 C 26.01 74.56 26.06 73.40 26.09 72.82 C 27.12 74.19 28.15 75.57 29.18 76.94 C 29.78 76.36 30.37 75.77 30.97 75.19 C 33.02 75.15 35.20 74.36 37.01 75.67 C 38.02 75.47 39.04 75.27 40.06 75.07 C 40.07 74.21 40.09 72.48 40.10 71.61 C 35.15 71.27 30.10 72.09 25.23 71.00 M 41.42 71.50 C 40.04 72.37 41.25 75.11 42.82 74.24 C 44.18 73.35 42.99 70.62 41.42 71.50 M 44.15 71.08 C 44.08 72.36 44.01 73.65 43.95 74.93 C 45.60 76.78 47.19 74.51 47.65 73.27 C 47.96 73.72 48.59 74.64 48.91 75.09 C 48.83 73.67 49.12 72.60 49.76 71.86 C 49.84 72.68 49.98 74.30 50.05 75.12 C 51.34 75.26 52.64 75.23 53.94 75.04 L 53.90 75.98 L 55.19 75.86 C 54.85 75.40 54.17 74.50 53.82 74.04 C 54.16 71.76 52.62 70.79 51.03 71.95 C 50.59 71.00 47.24 70.66 46.79 71.85 C 46.00 71.42 45.12 71.16 44.15 71.08 M 56.75 75.32 C 63.71 75.51 70.71 75.65 77.61 74.58 C 78.08 75.02 78.55 75.46 79.01 75.90 C 81.06 75.37 83.28 74.95 84.91 73.51 C 84.97 73.79 85.09 74.34 85.15 74.62 C 86.31 75.71 86.21 72.38 86.87 71.69 C 86.95 72.50 87.12 74.10 87.20 74.91 C 88.52 75.02 89.84 75.13 91.16 75.24 C 91.09 74.36 90.93 72.59 90.86 71.71 C 87.88 71.54 84.91 71.38 81.94 71.22 C 81.90 71.63 81.84 72.46 81.81 72.87 C 81.14 72.30 80.48 71.73 79.82 71.15 C 76.71 72.08 73.47 71.28 70.28 71.35 C 70.16 71.99 69.91 73.28 69.79 73.92 C 68.94 72.86 68.11 71.79 67.26 70.73 C 67.13 71.27 66.87 72.35 66.74 72.90 C 66.13 72.31 65.52 71.72 64.91 71.14 C 64.30 71.25 63.09 71.46 62.48 71.56 C 62.60 72.17 62.83 73.40 62.95 74.01 L 62.13 73.99 C 62.16 73.42 62.21 72.29 62.24 71.72 C 61.60 71.72 60.33 71.72 59.69 71.72 C 59.76 72.30 59.90 73.45 59.97 74.02 C 59.53 74.06 58.66 74.13 58.23 74.16 C 58.39 72.93 58.55 71.70 58.69 70.47 C 57.85 72.00 57.22 73.64 56.75 75.32 M 94.80 71.05 C 95.08 72.39 94.89 73.45 94.22 74.22 C 94.44 77.29 97.25 73.73 98.20 75.70 C 99.36 75.48 100.55 75.06 101.85 75.00 C 101.94 74.23 102.12 72.70 102.21 71.93 C 102.85 72.64 103.14 73.69 103.09 75.06 C 104.86 75.17 103.80 72.08 104.89 71.21 C 102.18 71.04 100.50 71.89 98.02 71.17 C 97.20 72.72 95.91 70.70 94.80 71.05 M 106.03 71.05 C 105.64 72.35 105.26 73.65 104.87 74.94 C 105.64 75.04 107.18 75.23 107.95 75.33 C 108.04 74.39 108.23 72.52 108.33 71.58 C 108.60 72.68 108.87 73.78 109.15 74.88 C 110.54 74.95 110.14 72.58 110.83 71.69 C 110.93 72.51 111.13 74.15 111.23 74.97 C 112.47 75.02 113.71 75.07 114.95 75.12 C 114.94 74.28 114.92 72.60 114.91 71.75 C 111.95 71.52 108.99 71.28 106.03 71.05 M 47.07 79.05 C 47.04 79.53 46.98 80.49 46.95 80.97 C 45.45 79.67 43.25 81.48 41.33 80.34 C 40.75 80.49 39.58 80.79 38.99 80.94 C 38.14 84.55 42.37 85.88 43.37 83.29 C 44.08 83.98 44.34 85.26 45.92 84.82 C 45.97 84.39 46.09 83.53 46.15 83.10 C 47.29 84.28 47.16 85.09 48.98 84.02 C 49.72 85.13 50.35 85.13 50.89 84.04 C 52.67 85.51 54.21 83.41 55.78 84.78 C 55.93 83.80 56.22 82.95 56.65 82.23 C 56.12 85.10 59.09 84.01 60.86 84.29 L 60.91 84.93 C 62.89 84.98 62.55 82.55 63.03 81.01 C 62.73 80.80 62.13 80.38 61.83 80.17 C 61.01 80.60 60.07 80.90 59.01 81.08 C 58.59 80.19 55.71 80.01 55.03 80.92 C 53.47 80.37 52.54 80.19 50.95 81.00 C 50.68 79.13 49.00 81.02 48.17 81.03 C 48.11 80.53 47.98 79.53 47.92 79.04 L 47.07 79.05 M 88.73 82.51 C 87.41 82.16 86.63 80.53 85.51 79.71 C 83.47 80.26 81.42 80.78 79.38 81.33 C 78.93 80.99 78.48 80.66 78.03 80.32 C 77.50 80.49 76.44 80.84 75.91 81.01 C 75.43 80.81 74.46 80.42 73.97 80.22 C 71.59 81.27 69.05 80.29 66.58 80.15 C 66.55 81.75 66.53 83.35 66.53 84.95 C 69.78 84.22 73.11 84.33 76.43 84.28 L 76.52 86.56 C 77.59 85.54 78.65 84.52 79.72 83.49 C 80.75 84.22 82.00 84.46 83.16 84.90 C 87.47 84.10 92.58 84.23 96.88 84.97 L 96.91 84.15 C 98.53 84.44 100.15 84.74 101.78 85.03 C 101.77 84.56 101.75 83.63 101.74 83.16 C 101.40 83.34 100.72 83.69 100.38 83.86 C 100.17 82.75 99.96 81.64 99.73 80.53 C 97.53 80.05 95.31 80.61 93.11 80.31 C 92.93 80.74 92.57 81.59 92.39 82.02 C 92.20 81.22 91.80 79.62 91.61 78.82 C 90.64 80.04 89.68 81.27 88.73 82.51 M 109.50 78.74 C 109.36 79.31 109.07 80.46 108.93 81.03 C 108.44 80.79 107.47 80.31 106.98 80.07 C 106.90 80.52 106.75 81.42 106.67 81.87 C 106.14 81.30 105.62 80.72 105.09 80.14 C 104.63 80.38 103.72 80.84 103.26 81.07 C 103.54 82.29 103.82 83.50 104.10 84.72 C 108.13 84.66 112.96 83.64 116.30 85.14 C 116.16 83.24 116.00 81.34 115.84 79.44 C 114.75 80.46 113.66 81.48 112.58 82.51 C 111.24 81.89 110.59 79.87 109.50 78.74 M 123.22 78.88 C 123.12 80.63 123.02 82.38 122.93 84.13 L 124.09 84.14 C 124.16 83.60 124.29 82.52 124.35 81.98 C 124.61 82.86 124.86 83.74 125.12 84.63 C 127.72 84.50 130.33 84.37 132.93 84.22 C 132.85 82.51 132.77 80.80 132.69 79.09 C 131.47 79.27 129.86 79.00 129.97 80.73 C 129.08 80.56 128.20 80.39 127.32 80.23 C 127.22 80.63 127.03 81.44 126.94 81.85 C 125.70 80.85 124.46 79.86 123.22 78.88 M 116.77 80.91 C 116.76 81.72 116.75 83.33 116.74 84.14 C 117.33 84.31 118.51 84.66 119.09 84.83 C 118.82 83.14 120.18 82.80 120.01 81.06 C 118.60 80.54 118.37 79.99 116.77 80.91 M 19.87 81.12 C 19.93 82.36 19.99 83.60 20.06 84.84 C 21.79 84.79 23.13 83.78 24.88 83.61 C 25.47 82.78 25.83 81.94 25.94 81.09 C 24.69 80.95 23.66 81.16 22.84 81.72 C 21.93 81.36 20.93 81.16 19.87 81.12 M 27.03 81.26 C 26.63 82.15 26.23 83.04 25.82 83.93 C 26.32 84.14 27.31 84.54 27.80 84.75 C 29.69 83.28 31.98 84.09 34.15 84.23 C 34.08 83.46 33.95 81.92 33.88 81.15 C 31.66 81.90 29.31 81.24 27.03 81.26 M 54.27 88.38 C 54.53 90.58 52.13 89.59 50.79 89.88 C 50.80 91.63 50.81 93.39 50.83 95.14 C 51.75 94.55 52.68 93.96 53.60 93.37 C 57.35 93.72 61.25 92.83 64.87 94.01 C 64.94 93.51 65.09 92.52 65.17 92.02 C 65.71 92.67 66.25 93.31 66.80 93.96 C 66.85 92.78 67.13 91.85 67.63 91.16 C 67.80 91.87 68.14 93.29 68.32 94.00 C 68.79 92.99 69.26 91.98 69.73 90.98 C 69.79 91.69 69.92 93.12 69.98 93.83 C 70.74 93.91 72.28 94.07 73.04 94.15 L 72.94 93.01 C 72.49 93.00 71.61 92.98 71.17 92.97 C 71.17 91.69 71.17 90.41 71.18 89.13 C 68.48 89.75 65.41 89.23 62.98 90.62 C 61.69 90.23 60.40 89.84 59.11 89.45 C 58.60 89.80 57.60 90.50 57.10 90.85 C 57.01 90.24 56.82 89.02 56.72 88.41 C 55.91 88.40 55.09 88.39 54.27 88.38 M 81.11 90.56 C 80.55 90.39 79.44 90.05 78.89 89.88 C 78.55 90.33 77.89 91.23 77.56 91.69 C 76.96 91.00 76.36 90.31 75.76 89.62 C 75.56 91.04 75.36 92.46 75.17 93.88 C 79.95 93.27 84.76 93.99 89.55 93.28 C 89.42 92.86 89.16 92.02 89.03 91.60 C 90.22 92.52 91.46 93.36 92.64 94.29 C 92.79 92.78 92.94 91.28 93.08 89.77 C 90.80 90.34 87.01 88.80 85.62 90.63 C 84.96 90.43 83.64 90.02 82.99 89.82 C 82.84 90.39 82.54 91.52 82.39 92.09 C 82.20 90.75 82.00 89.41 81.81 88.07 C 80.66 88.58 80.42 89.41 81.11 90.56 M 38.95 90.00 C 39.22 91.30 39.51 92.61 39.83 93.91 C 43.28 93.52 46.74 93.44 50.21 93.58 C 50.19 92.34 50.17 91.10 50.16 89.85 C 46.42 89.76 42.68 89.80 38.95 90.00 M 46.62 99.89 C 43.87 97.76 41.46 100.59 38.92 99.05 C 38.20 103.12 42.27 103.58 43.11 101.94 L 43.90 101.94 L 43.98 103.03 C 44.51 103.01 45.56 102.99 46.09 102.97 C 45.89 102.56 45.51 101.72 45.32 101.31 C 45.65 101.30 46.33 101.28 46.66 101.26 C 47.03 104.14 48.87 101.78 51.13 102.94 L 51.13 102.14 C 51.67 102.85 54.14 103.89 54.24 102.23 C 54.73 102.39 55.72 102.70 56.21 102.85 C 56.25 102.20 56.31 100.88 56.34 100.23 C 56.74 100.90 56.97 101.74 57.02 102.76 C 58.95 102.37 60.14 102.45 62.05 102.97 C 61.85 102.57 61.45 101.76 61.26 101.35 C 62.86 101.46 63.40 100.67 62.89 98.98 C 61.60 99.07 60.18 98.86 59.31 99.75 C 58.77 98.26 55.06 98.83 54.31 99.69 C 54.07 98.18 51.65 99.08 51.22 99.77 L 51.19 99.05 C 49.85 98.67 48.91 98.94 48.36 99.85 C 48.58 97.37 46.41 97.48 46.62 99.89 M 79.03 97.84 C 76.12 99.63 72.94 99.41 69.71 98.84 C 69.84 100.34 69.98 101.85 70.13 103.35 C 70.50 102.27 70.86 101.19 71.22 100.11 C 72.03 101.20 72.84 102.29 73.65 103.38 C 73.56 102.77 73.37 101.54 73.28 100.93 C 74.47 101.65 75.67 102.37 76.86 103.10 C 76.71 102.57 76.40 101.51 76.25 100.98 C 77.53 101.65 78.82 102.32 80.10 102.99 C 79.75 101.27 79.39 99.56 79.03 97.84 M 89.35 97.39 C 89.29 100.57 85.27 98.56 83.27 99.21 C 83.48 100.45 83.70 101.69 83.93 102.92 C 88.97 103.16 94.14 101.96 99.09 103.02 C 98.84 102.57 98.36 101.66 98.11 101.21 C 98.67 101.08 99.80 100.81 100.36 100.68 C 99.94 100.31 99.10 99.57 98.68 99.19 C 97.81 99.33 96.95 99.47 96.08 99.60 C 95.96 99.13 95.73 98.17 95.61 97.69 C 94.51 98.65 93.41 99.62 92.32 100.59 C 91.33 99.52 90.34 98.46 89.35 97.39 M 112.93 98.09 C 112.99 98.42 113.09 99.06 113.15 99.39 C 109.89 99.24 106.62 99.29 103.37 99.05 C 103.18 100.35 102.99 101.66 102.80 102.96 C 103.60 102.95 105.22 102.91 106.02 102.89 L 106.09 104.30 C 106.60 103.91 107.62 103.14 108.13 102.75 C 108.62 103.11 109.60 103.83 110.09 104.19 C 110.83 103.56 111.58 102.94 112.32 102.32 C 116.22 103.08 120.22 102.49 124.14 103.08 C 124.13 101.47 124.13 99.87 124.14 98.26 C 121.10 98.82 118.03 99.16 114.94 99.38 C 114.80 99.74 114.52 100.45 114.37 100.81 C 114.30 100.10 114.14 98.70 114.07 98.00 L 112.93 98.09 M 131.22 103.23 C 131.77 102.07 132.32 100.92 132.86 99.77 C 132.89 100.54 132.94 102.08 132.97 102.85 C 135.37 102.69 137.79 102.16 140.12 103.02 C 139.91 102.51 139.49 101.50 139.28 100.99 C 140.37 101.87 141.54 102.65 142.64 103.53 C 143.06 103.29 143.89 102.82 144.31 102.58 C 143.70 102.38 142.49 102.00 141.88 101.81 C 142.20 100.83 142.52 99.85 142.85 98.88 C 140.07 99.55 137.18 99.28 134.35 99.50 C 133.25 98.91 132.15 98.33 131.05 97.74 C 131.06 99.57 131.12 101.40 131.22 103.23 M 11.09 99.47 C 11.12 100.50 11.16 101.54 11.20 102.58 C 15.77 104.08 20.50 102.30 25.19 102.38 C 25.47 101.67 26.04 100.25 26.33 99.54 C 21.25 99.71 16.17 99.74 11.09 99.47 M 27.26 99.19 C 26.98 100.43 26.45 101.58 26.15 102.77 C 29.01 102.65 31.09 102.26 33.87 102.86 C 33.94 102.16 34.09 100.75 34.16 100.05 C 32.36 100.51 30.18 98.36 28.96 99.92 C 28.54 99.74 27.68 99.37 27.26 99.19 M 127.95 98.97 C 127.23 100.50 127.27 101.52 127.94 103.05 C 128.54 102.77 129.73 102.19 130.32 101.91 C 130.00 101.46 129.37 100.56 129.05 100.11 L 130.29 99.94 L 130.26 99.00 C 129.68 98.99 128.53 98.97 127.95 98.97 M 39.34 106.87 C 39.28 108.52 39.22 110.17 39.16 111.82 C 42.45 111.86 45.75 111.91 49.05 111.95 C 49.00 110.26 48.95 108.58 48.89 106.90 C 46.70 107.50 44.51 108.11 42.32 108.71 C 41.33 108.10 40.33 107.48 39.34 106.87 M 63.27 117.72 C 63.53 118.80 63.79 119.88 64.05 120.97 C 69.39 120.58 74.74 121.03 80.08 121.12 C 80.15 120.59 80.28 119.54 80.35 119.01 C 80.43 120.30 81.03 120.95 82.18 120.95 C 82.22 120.48 82.31 119.54 82.35 119.07 C 82.48 119.47 82.74 120.26 82.87 120.66 C 83.80 120.88 85.67 121.33 86.60 121.55 C 86.78 120.14 86.96 118.73 87.13 117.32 C 83.37 117.53 79.58 116.90 75.88 117.74 C 75.75 118.38 75.50 119.67 75.38 120.32 C 73.07 119.90 75.40 116.47 71.98 116.41 C 69.46 118.13 66.15 117.22 63.27 117.72 M 102.89 116.06 C 102.86 117.73 102.84 119.40 102.81 121.07 C 105.54 121.06 108.27 121.05 111.00 121.04 C 111.01 120.46 111.03 119.30 111.04 118.72 C 111.73 119.58 112.42 120.45 113.12 121.31 C 112.99 119.87 112.85 118.42 112.71 116.98 C 110.45 117.38 108.16 117.54 105.87 117.55 C 105.86 117.19 105.86 116.47 105.85 116.11 C 105.11 117.64 103.95 116.56 102.89 116.06 M 39.31 117.33 C 39.76 118.44 39.30 119.55 39.10 120.67 C 40.30 121.35 41.51 122.04 42.73 122.71 C 43.74 121.86 44.75 121.01 45.76 120.15 C 45.86 120.84 46.05 122.20 46.15 122.89 C 46.77 122.28 47.39 121.67 48.01 121.07 C 50.41 120.87 52.82 120.68 55.22 120.47 L 55.26 121.19 C 55.72 120.99 56.64 120.58 57.11 120.38 C 58.11 120.64 59.12 120.91 60.12 121.18 C 60.02 119.87 59.92 118.57 59.82 117.27 C 52.98 117.40 46.14 117.44 39.31 117.33 M 89.95 117.79 C 90.34 119.05 90.73 120.30 91.12 121.56 C 93.60 121.11 96.04 120.50 98.39 119.60 C 98.27 119.96 98.01 120.70 97.89 121.07 C 99.51 120.92 101.14 120.77 102.76 120.62 L 101.03 119.75 C 101.36 118.87 101.69 118.00 102.02 117.13 C 99.37 117.53 96.59 117.85 93.97 117.06 C 94.07 118.38 93.50 118.95 92.28 118.77 C 92.42 118.34 92.71 117.47 92.85 117.04 C 91.88 117.29 90.92 117.54 89.95 117.79 M 6.95 118.01 C 6.93 118.79 6.88 120.35 6.85 121.13 C 15.83 121.21 24.81 121.30 33.78 120.77 C 33.91 120.11 34.19 118.79 34.33 118.13 C 25.20 118.29 16.07 118.60 6.95 118.01 M 92.98 125.00 C 92.96 125.50 92.91 126.51 92.89 127.02 C 91.75 126.47 88.84 125.39 87.94 126.93 C 86.40 126.09 84.97 126.30 83.16 126.90 C 82.42 125.72 81.65 125.77 80.87 127.06 C 79.85 126.71 78.89 126.37 77.97 126.04 C 78.17 127.64 77.09 128.35 76.99 129.87 C 78.46 130.58 80.32 130.88 81.67 131.67 C 82.42 130.05 84.52 129.19 84.24 131.88 C 85.10 131.51 85.75 131.00 86.20 130.33 C 87.57 130.23 89.08 130.36 89.67 129.20 C 89.99 131.74 91.74 130.19 93.01 130.04 C 93.63 131.02 94.31 131.06 95.04 130.16 C 95.58 130.29 96.67 130.56 97.21 130.69 C 98.06 130.49 98.94 130.27 99.86 130.04 C 100.75 131.31 101.95 129.67 103.73 130.76 C 105.24 128.32 104.39 124.91 101.30 126.90 C 100.52 125.37 99.67 125.31 98.74 126.73 C 97.88 125.94 96.32 125.71 96.66 127.71 C 96.26 126.47 93.82 126.56 94.00 124.99 L 92.98 125.00 M 111.18 124.74 C 111.15 125.22 111.10 126.18 111.08 126.66 C 109.98 126.56 108.88 126.47 107.78 126.38 C 107.93 127.83 108.09 129.28 108.25 130.74 C 111.25 131.43 117.19 128.11 117.57 132.51 C 118.49 130.55 119.40 128.59 120.29 126.63 C 118.54 126.58 116.79 126.53 115.04 126.47 C 114.83 126.82 114.39 127.51 114.17 127.86 C 114.07 127.45 113.87 126.62 113.76 126.21 C 113.46 126.35 112.85 126.63 112.55 126.77 C 112.21 126.27 111.52 125.25 111.18 124.74 M 39.77 125.82 C 39.51 127.33 39.42 128.86 39.18 130.38 C 42.68 129.74 49.71 132.47 50.16 127.99 C 50.43 128.54 50.96 129.63 51.22 130.18 C 51.58 129.96 52.29 129.51 52.64 129.29 C 52.99 129.74 53.70 130.63 54.05 131.08 C 54.06 129.38 54.07 127.68 54.07 125.98 C 51.62 126.94 46.84 125.25 46.65 128.80 C 46.34 127.22 44.96 126.26 43.03 125.95 L 42.99 127.10 C 41.91 126.68 40.84 126.26 39.77 125.82 M 54.80 126.87 C 54.78 127.69 54.74 129.32 54.72 130.14 C 55.27 130.28 56.37 130.57 56.92 130.72 C 56.93 129.60 57.17 128.76 57.65 128.19 C 57.71 128.64 57.83 129.54 57.89 130.00 C 58.94 129.95 59.53 129.37 59.68 128.26 C 59.02 130.66 61.16 129.79 62.32 130.67 C 64.46 130.85 66.43 130.00 66.69 128.22 C 66.74 128.68 66.84 129.62 66.89 130.09 C 67.47 130.26 68.64 130.60 69.22 130.77 C 70.04 130.45 70.93 130.21 71.87 130.04 C 73.09 132.25 74.28 128.07 74.07 126.90 C 73.57 126.70 72.59 126.31 72.09 126.12 C 71.76 126.32 71.10 126.74 70.77 126.95 L 70.77 126.36 C 70.30 126.53 69.36 126.86 68.89 127.03 C 68.40 126.81 67.41 126.37 66.92 126.15 C 64.84 127.87 62.55 124.72 61.69 127.81 C 60.89 125.73 59.06 126.23 57.15 126.92 L 56.94 126.06 C 56.40 126.26 55.33 126.67 54.80 126.87 M 56.10 135.96 C 56.48 137.19 56.86 138.43 57.25 139.66 C 59.25 139.33 61.27 138.77 63.13 139.96 C 63.12 139.53 63.09 138.66 63.08 138.22 C 64.45 138.78 65.82 139.33 67.18 139.89 C 67.63 139.71 68.52 139.35 68.97 139.17 C 69.37 139.33 70.16 139.63 70.56 139.79 C 72.01 139.48 73.48 139.18 74.94 138.88 C 75.12 138.41 75.49 137.48 75.67 137.01 C 75.09 139.75 77.95 139.36 79.73 139.95 C 79.86 139.17 80.13 137.62 80.26 136.84 C 79.92 136.44 79.24 135.63 78.90 135.23 C 74.68 135.52 69.20 136.68 65.60 134.54 C 62.77 136.27 59.26 135.40 56.10 135.96 M 38.81 136.21 C 39.06 137.33 39.31 138.44 39.56 139.56 C 39.45 139.84 39.21 140.42 39.10 140.71 C 39.91 140.74 41.53 140.81 42.35 140.85 C 42.05 138.82 41.75 136.79 41.44 134.77 C 40.78 135.13 39.47 135.85 38.81 136.21 M 42.85 135.88 C 42.84 136.70 42.82 138.36 42.81 139.19 C 43.19 138.69 43.97 137.69 44.36 137.19 C 44.25 138.73 47.49 141.69 47.30 138.21 C 47.92 139.32 50.73 141.21 50.31 138.22 C 51.27 139.47 52.86 140.25 54.92 140.16 L 54.91 138.78 C 54.48 138.84 53.61 138.97 53.17 139.03 C 52.96 138.60 52.54 137.75 52.33 137.33 C 52.51 136.72 52.86 135.51 53.04 134.90 C 52.52 134.89 51.49 134.88 50.98 134.87 L 50.95 135.96 C 49.53 134.38 48.01 137.16 46.70 135.30 C 45.51 135.88 44.14 135.41 42.85 135.88 M 18.03 136.49 C 17.78 137.57 17.52 138.66 17.27 139.74 C 22.87 139.22 28.51 139.07 34.13 139.15 C 34.09 138.44 34.00 137.02 33.96 136.31 C 31.68 136.45 29.40 136.55 27.11 136.44 C 26.88 136.80 26.40 137.51 26.16 137.87 C 25.18 134.84 20.64 137.11 18.03 136.49 M 142.17 143.23 C 96.09 142.93 50.01 143.17 3.93 143.11 L 3.96 144.25 C 45.64 144.47 87.32 144.25 129.00 144.36 C 133.13 144.33 137.41 144.92 141.39 143.49 C 143.01 143.65 144.64 143.81 146.27 143.97 C 145.40 141.82 142.92 140.35 142.17 143.23 Z" />
</g>
<g id="#f4f4f4ff">
<path fill="#f4f4f4" opacity="1.00" d=" M 5.37 4.24 C 51.18 3.33 97.13 4.04 142.99 3.89 C 147.77 3.21 147.21 8.89 147.21 12.03 C 146.91 14.54 147.76 19.33 143.88 18.78 C 98.92 19.07 53.93 18.77 8.96 18.93 C 1.29 20.08 2.82 8.01 5.37 4.24 M 7.15 9.44 C 7.19 10.85 7.24 12.27 7.29 13.68 C 8.21 13.51 9.12 13.33 10.03 13.13 L 10.21 14.05 C 15.71 12.86 21.95 14.08 27.73 13.74 C 27.80 12.98 27.93 11.46 28.00 10.69 C 23.89 9.41 16.91 12.50 14.83 9.01 C 14.54 9.45 13.96 10.34 13.67 10.79 C 11.71 9.38 9.50 9.39 7.15 9.44 Z" />
<path fill="#f4f4f4" opacity="1.00" d=" M 4.11 22.96 C 51.47 22.13 98.88 22.76 146.26 22.64 C 146.90 27.51 150.11 38.50 142.05 37.74 C 97.38 37.62 52.69 37.68 8.02 37.71 C 0.76 37.64 4.51 27.60 4.11 22.96 M 8.39 28.28 C 8.06 29.96 7.73 31.64 7.40 33.33 C 8.09 32.57 8.78 31.82 9.47 31.06 C 9.69 31.45 10.12 32.22 10.34 32.60 C 15.96 32.69 21.58 32.53 27.20 32.72 C 27.22 31.50 27.24 30.28 27.24 29.07 C 22.22 30.02 17.05 29.15 11.96 29.38 C 11.77 29.74 11.38 30.47 11.19 30.83 C 11.08 30.17 10.87 28.86 10.77 28.21 C 10.17 28.23 8.99 28.26 8.39 28.28 M 29.21 29.26 C 29.21 30.40 29.21 31.55 29.21 32.70 C 29.95 32.58 30.68 32.46 31.42 32.35 C 31.74 32.70 32.39 33.40 32.72 33.75 C 33.51 33.25 34.31 32.76 35.11 32.27 C 40.25 32.69 45.41 32.32 50.55 32.77 C 50.53 31.50 50.51 30.23 50.49 28.97 C 43.53 30.08 36.28 29.28 29.21 29.26 Z" />
<path fill="#f4f4f4" opacity="1.00" d=" M 143.21 59.88 C 143.29 58.66 144.40 57.84 145.57 57.81 C 146.49 59.06 144.33 60.98 143.21 59.88 Z" />
<path fill="#f4f4f4" opacity="1.00" d=" M 19.65 72.96 C 19.93 72.51 20.49 71.62 20.76 71.17 C 20.75 72.39 20.73 73.61 20.72 74.82 C 19.46 73.36 19.41 74.84 18.16 74.87 C 18.20 74.20 18.28 72.84 18.32 72.16 C 18.65 72.36 19.32 72.76 19.65 72.96 Z" />
<path fill="#f4f4f4" opacity="1.00" d=" M 142.17 143.23 C 142.92 140.35 145.40 141.82 146.27 143.97 C 144.64 143.81 143.01 143.65 141.39 143.49 L 142.17 143.23 Z" />
</g>
<g id="#6b6b6bff">
<path fill="#6b6b6b" opacity="1.00" d=" M 7.15 9.44 C 9.50 9.39 11.71 9.38 13.67 10.79 C 13.96 10.34 14.54 9.45 14.83 9.01 C 16.91 12.50 23.89 9.41 28.00 10.69 C 27.93 11.46 27.80 12.98 27.73 13.74 C 21.95 14.08 15.71 12.86 10.21 14.05 L 10.03 13.13 C 9.12 13.33 8.21 13.51 7.29 13.68 C 7.24 12.27 7.19 10.85 7.15 9.44 Z" />
<path fill="#6b6b6b" opacity="1.00" d=" M 8.39 28.28 C 8.99 28.26 10.17 28.23 10.77 28.21 C 10.87 28.86 11.08 30.17 11.19 30.83 C 11.38 30.47 11.77 29.74 11.96 29.38 C 17.05 29.15 22.22 30.02 27.24 29.07 C 27.24 30.28 27.22 31.50 27.20 32.72 C 21.58 32.53 15.96 32.69 10.34 32.60 C 10.12 32.22 9.69 31.45 9.47 31.06 C 8.78 31.82 8.09 32.57 7.40 33.33 C 7.73 31.64 8.06 29.96 8.39 28.28 Z" />
<path fill="#6b6b6b" opacity="1.00" d=" M 29.21 29.26 C 36.28 29.28 43.53 30.08 50.49 28.97 C 50.51 30.23 50.53 31.50 50.55 32.77 C 45.41 32.32 40.25 32.69 35.11 32.27 C 34.31 32.76 33.51 33.25 32.72 33.75 C 32.39 33.40 31.74 32.70 31.42 32.35 C 30.68 32.46 29.95 32.58 29.21 32.70 C 29.21 31.55 29.21 30.40 29.21 29.26 Z" />
<path fill="#6b6b6b" opacity="1.00" d=" M 27.04 52.03 C 31.24 51.70 35.46 51.75 39.66 51.99 C 39.68 53.35 39.71 54.70 39.73 56.06 C 37.35 54.41 34.92 55.99 32.51 56.72 C 70.63 58.17 108.86 56.56 147.00 57.52 C 146.64 57.59 145.93 57.74 145.57 57.81 C 144.40 57.84 143.29 58.66 143.21 59.88 C 142.39 59.29 141.58 58.70 140.77 58.10 C 95.07 57.47 49.32 58.60 3.63 57.53 C 12.74 56.96 21.88 57.53 30.99 57.10 C 30.47 55.69 29.89 54.30 29.37 52.89 C 29.13 53.76 28.67 55.50 28.43 56.36 C 28.01 54.91 27.47 53.49 27.04 52.03 Z" />
<path fill="#6b6b6b" opacity="1.00" d=" M 3.19 55.70 C 3.75 53.56 5.36 50.76 7.70 52.98 C 11.38 51.03 15.63 52.40 19.60 52.29 C 19.88 52.16 20.44 51.91 20.72 51.78 C 22.56 51.89 24.40 51.99 26.24 52.11 C 25.87 53.48 25.51 54.86 25.14 56.24 C 19.14 54.83 12.54 56.17 6.28 55.60 C 6.04 55.19 5.56 54.38 5.32 53.97 C 5.26 54.46 5.13 55.44 5.07 55.93 L 3.19 55.70 Z" />
<path fill="#6b6b6b" opacity="1.00" d=" M 40.79 51.98 C 42.90 52.62 42.10 52.46 44.18 52.07 C 44.29 52.49 44.53 53.33 44.65 53.75 C 44.62 51.26 48.23 52.15 49.80 52.80 L 49.87 51.92 C 53.52 50.46 53.44 57.03 49.95 56.01 L 49.86 55.14 C 47.42 56.16 44.54 55.57 42.22 55.22 C 41.86 55.41 41.14 55.79 40.78 55.97 C 40.79 54.64 40.79 53.31 40.79 51.98 Z" />
<path fill="#6b6b6b" opacity="1.00" d=" M 7.17 63.42 C 9.62 63.88 10.87 62.69 12.65 62.36 C 13.05 63.41 13.72 64.07 14.66 64.34 C 14.66 64.67 14.66 65.32 14.66 65.65 C 14.41 65.90 13.91 66.41 13.66 66.66 C 13.27 66.41 12.49 65.92 12.10 65.68 C 10.37 65.29 9.23 65.61 8.68 66.64 C 8.30 66.41 7.53 65.95 7.15 65.72 C 5.75 65.44 4.83 65.82 4.37 66.86 C 4.90 64.93 2.94 65.00 3.34 63.33 C 3.46 63.57 3.71 64.07 3.83 64.31 C 5.46 64.58 6.58 64.28 7.17 63.42 Z" />
<path fill="#6b6b6b" opacity="1.00" d=" M 7.08 71.81 C 7.34 71.37 7.88 70.51 8.14 70.07 C 8.08 71.70 8.02 73.33 7.96 74.96 C 6.65 75.28 5.35 75.61 4.04 75.93 C 4.04 74.28 4.04 72.62 4.05 70.96 C 5.06 71.24 6.07 71.53 7.08 71.81 Z" />
<path fill="#6b6b6b" opacity="1.00" d=" M 8.78 71.00 C 9.35 71.06 10.49 71.19 11.06 71.25 C 11.04 71.89 10.99 73.17 10.96 73.81 C 12.37 73.35 12.77 72.30 12.17 70.69 C 12.73 71.06 13.86 71.82 14.43 72.20 C 14.10 73.29 13.80 74.39 13.50 75.49 C 11.99 75.26 10.49 75.03 8.98 74.80 C 8.92 73.53 8.85 72.27 8.78 71.00 Z" />
<path fill="#6b6b6b" opacity="1.00" d=" M 14.76 71.10 C 15.37 71.08 16.61 71.04 17.23 71.03 C 17.10 72.34 16.97 73.65 16.83 74.96 C 16.35 74.96 15.37 74.96 14.88 74.96 C 14.84 73.67 14.80 72.39 14.76 71.10 Z" />
<path fill="#6b6b6b" opacity="1.00" d=" M 25.23 71.00 C 30.10 72.09 35.15 71.27 40.10 71.61 C 40.09 72.48 40.07 74.21 40.06 75.07 C 39.04 75.27 38.02 75.47 37.01 75.67 C 35.20 74.36 33.02 75.15 30.97 75.19 C 30.37 75.77 29.78 76.36 29.18 76.94 C 28.15 75.57 27.12 74.19 26.09 72.82 C 26.06 73.40 26.01 74.56 25.98 75.14 L 24.89 75.05 C 25.00 73.70 25.11 72.35 25.23 71.00 Z" />
<path fill="#6b6b6b" opacity="1.00" d=" M 41.42 71.50 C 42.99 70.62 44.18 73.35 42.82 74.24 C 41.25 75.11 40.04 72.37 41.42 71.50 Z" />
<path fill="#6b6b6b" opacity="1.00" d=" M 44.15 71.08 C 45.12 71.16 46.00 71.42 46.79 71.85 C 47.24 70.66 50.59 71.00 51.03 71.95 C 52.62 70.79 54.16 71.76 53.82 74.04 C 54.17 74.50 54.85 75.40 55.19 75.86 L 53.90 75.98 L 53.94 75.04 C 52.64 75.23 51.34 75.26 50.05 75.12 C 49.98 74.30 49.84 72.68 49.76 71.86 C 49.12 72.60 48.83 73.67 48.91 75.09 C 48.59 74.64 47.96 73.72 47.65 73.27 C 47.19 74.51 45.60 76.78 43.95 74.93 C 44.01 73.65 44.08 72.36 44.15 71.08 Z" />
<path fill="#6b6b6b" opacity="1.00" d=" M 56.75 75.32 C 57.22 73.64 57.85 72.00 58.69 70.47 C 58.55 71.70 58.39 72.93 58.23 74.16 C 58.66 74.13 59.53 74.06 59.97 74.02 C 59.90 73.45 59.76 72.30 59.69 71.72 C 60.33 71.72 61.60 71.72 62.24 71.72 C 62.21 72.29 62.16 73.42 62.13 73.99 L 62.95 74.01 C 62.83 73.40 62.60 72.17 62.48 71.56 C 63.09 71.46 64.30 71.25 64.91 71.14 C 65.52 71.72 66.13 72.31 66.74 72.90 C 66.87 72.35 67.13 71.27 67.26 70.73 C 68.11 71.79 68.94 72.86 69.79 73.92 C 69.91 73.28 70.16 71.99 70.28 71.35 C 73.47 71.28 76.71 72.08 79.82 71.15 C 80.48 71.73 81.14 72.30 81.81 72.87 C 81.84 72.46 81.90 71.63 81.94 71.22 C 84.91 71.38 87.88 71.54 90.86 71.71 C 90.93 72.59 91.09 74.36 91.16 75.24 C 89.84 75.13 88.52 75.02 87.20 74.91 C 87.12 74.10 86.95 72.50 86.87 71.69 C 86.21 72.38 86.31 75.71 85.15 74.62 C 85.09 74.34 84.97 73.79 84.91 73.51 C 83.28 74.95 81.06 75.37 79.01 75.90 C 78.55 75.46 78.08 75.02 77.61 74.58 C 70.71 75.65 63.71 75.51 56.75 75.32 Z" />
<path fill="#6b6b6b" opacity="1.00" d=" M 94.80 71.05 C 95.91 70.70 97.20 72.72 98.02 71.17 C 100.50 71.89 102.18 71.04 104.89 71.21 C 103.80 72.08 104.86 75.17 103.09 75.06 C 103.14 73.69 102.85 72.64 102.21 71.93 C 102.12 72.70 101.94 74.23 101.85 75.00 C 100.55 75.06 99.36 75.48 98.20 75.70 C 97.25 73.73 94.44 77.29 94.22 74.22 C 94.89 73.45 95.08 72.39 94.80 71.05 Z" />
<path fill="#6b6b6b" opacity="1.00" d=" M 106.03 71.05 C 108.99 71.28 111.95 71.52 114.91 71.75 C 114.92 72.60 114.94 74.28 114.95 75.12 C 113.71 75.07 112.47 75.02 111.23 74.97 C 111.13 74.15 110.93 72.51 110.83 71.69 C 110.14 72.58 110.54 74.95 109.15 74.88 C 108.87 73.78 108.60 72.68 108.33 71.58 C 108.23 72.52 108.04 74.39 107.95 75.33 C 107.18 75.23 105.64 75.04 104.87 74.94 C 105.26 73.65 105.64 72.35 106.03 71.05 Z" />
<path fill="#6b6b6b" opacity="1.00" d=" M 47.07 79.05 L 47.92 79.04 C 47.98 79.53 48.11 80.53 48.17 81.03 C 49.00 81.02 50.68 79.13 50.95 81.00 C 52.54 80.19 53.47 80.37 55.03 80.92 C 55.71 80.01 58.59 80.19 59.01 81.08 C 60.07 80.90 61.01 80.60 61.83 80.17 C 62.13 80.38 62.73 80.80 63.03 81.01 C 62.55 82.55 62.89 84.98 60.91 84.93 L 60.86 84.29 C 59.09 84.01 56.12 85.10 56.65 82.23 C 56.22 82.95 55.93 83.80 55.78 84.78 C 54.21 83.41 52.67 85.51 50.89 84.04 C 50.35 85.13 49.72 85.13 48.98 84.02 C 47.16 85.09 47.29 84.28 46.15 83.10 C 46.09 83.53 45.97 84.39 45.92 84.82 C 44.34 85.26 44.08 83.98 43.37 83.29 C 42.37 85.88 38.14 84.55 38.99 80.94 C 39.58 80.79 40.75 80.49 41.33 80.34 C 43.25 81.48 45.45 79.67 46.95 80.97 C 46.98 80.49 47.04 79.53 47.07 79.05 Z" />
<path fill="#6b6b6b" opacity="1.00" d=" M 88.73 82.51 C 89.68 81.27 90.64 80.04 91.61 78.82 C 91.80 79.62 92.20 81.22 92.39 82.02 C 92.57 81.59 92.93 80.74 93.11 80.31 C 95.31 80.61 97.53 80.05 99.73 80.53 C 99.96 81.64 100.17 82.75 100.38 83.86 C 100.72 83.69 101.40 83.34 101.74 83.16 C 101.75 83.63 101.77 84.56 101.78 85.03 C 100.15 84.74 98.53 84.44 96.91 84.15 L 96.88 84.97 C 92.58 84.23 87.47 84.10 83.16 84.90 C 82.00 84.46 80.75 84.22 79.72 83.49 C 78.65 84.52 77.59 85.54 76.52 86.56 L 76.43 84.28 C 73.11 84.33 69.78 84.22 66.53 84.95 C 66.53 83.35 66.55 81.75 66.58 80.15 C 69.05 80.29 71.59 81.27 73.97 80.22 C 74.46 80.42 75.43 80.81 75.91 81.01 C 76.44 80.84 77.50 80.49 78.03 80.32 C 78.48 80.66 78.93 80.99 79.38 81.33 C 81.42 80.78 83.47 80.26 85.51 79.71 C 86.63 80.53 87.41 82.16 88.73 82.51 Z" />
<path fill="#6b6b6b" opacity="1.00" d=" M 109.50 78.74 C 110.59 79.87 111.24 81.89 112.58 82.51 C 113.66 81.48 114.75 80.46 115.84 79.44 C 116.00 81.34 116.16 83.24 116.30 85.14 C 112.96 83.64 108.13 84.66 104.10 84.72 C 103.82 83.50 103.54 82.29 103.26 81.07 C 103.72 80.84 104.63 80.38 105.09 80.14 C 105.62 80.72 106.14 81.30 106.67 81.87 C 106.75 81.42 106.90 80.52 106.98 80.07 C 107.47 80.31 108.44 80.79 108.93 81.03 C 109.07 80.46 109.36 79.31 109.50 78.74 Z" />
<path fill="#6b6b6b" opacity="1.00" d=" M 123.22 78.88 C 124.46 79.86 125.70 80.85 126.94 81.85 C 127.03 81.44 127.22 80.63 127.32 80.23 C 128.20 80.39 129.08 80.56 129.97 80.73 C 129.86 79.00 131.47 79.27 132.69 79.09 C 132.77 80.80 132.85 82.51 132.93 84.22 C 130.33 84.37 127.72 84.50 125.12 84.63 C 124.86 83.74 124.61 82.86 124.35 81.98 C 124.29 82.52 124.16 83.60 124.09 84.14 L 122.93 84.13 C 123.02 82.38 123.12 80.63 123.22 78.88 Z" />
<path fill="#6b6b6b" opacity="1.00" d=" M 116.77 80.91 C 118.37 79.99 118.60 80.54 120.01 81.06 C 120.18 82.80 118.82 83.14 119.09 84.83 C 118.51 84.66 117.33 84.31 116.74 84.14 C 116.75 83.33 116.76 81.72 116.77 80.91 Z" />
<path fill="#6b6b6b" opacity="1.00" d=" M 19.87 81.12 C 20.93 81.16 21.93 81.36 22.84 81.72 C 23.66 81.16 24.69 80.95 25.94 81.09 C 25.83 81.94 25.47 82.78 24.88 83.61 C 23.13 83.78 21.79 84.79 20.06 84.84 C 19.99 83.60 19.93 82.36 19.87 81.12 Z" />
<path fill="#6b6b6b" opacity="1.00" d=" M 27.03 81.26 C 29.31 81.24 31.66 81.90 33.88 81.15 C 33.95 81.92 34.08 83.46 34.15 84.23 C 31.98 84.09 29.69 83.28 27.80 84.75 C 27.31 84.54 26.32 84.14 25.82 83.93 C 26.23 83.04 26.63 82.15 27.03 81.26 Z" />
<path fill="#6b6b6b" opacity="1.00" d=" M 54.27 88.38 C 55.09 88.39 55.91 88.40 56.72 88.41 C 56.82 89.02 57.01 90.24 57.10 90.85 C 57.60 90.50 58.60 89.80 59.11 89.45 C 60.40 89.84 61.69 90.23 62.98 90.62 C 65.41 89.23 68.48 89.75 71.18 89.13 C 71.17 90.41 71.17 91.69 71.17 92.97 C 71.61 92.98 72.49 93.00 72.94 93.01 L 73.04 94.15 C 72.28 94.07 70.74 93.91 69.98 93.83 C 69.92 93.12 69.79 91.69 69.73 90.98 C 69.26 91.98 68.79 92.99 68.32 94.00 C 68.14 93.29 67.80 91.87 67.63 91.16 C 67.13 91.85 66.85 92.78 66.80 93.96 C 66.25 93.31 65.71 92.67 65.17 92.02 C 65.09 92.52 64.94 93.51 64.87 94.01 C 61.25 92.83 57.35 93.72 53.60 93.37 C 52.68 93.96 51.75 94.55 50.83 95.14 C 50.81 93.39 50.80 91.63 50.79 89.88 C 52.13 89.59 54.53 90.58 54.27 88.38 Z" />
<path fill="#6b6b6b" opacity="1.00" d=" M 81.11 90.56 C 80.42 89.41 80.66 88.58 81.81 88.07 C 82.00 89.41 82.20 90.75 82.39 92.09 C 82.54 91.52 82.84 90.39 82.99 89.82 C 83.64 90.02 84.96 90.43 85.62 90.63 C 87.01 88.80 90.80 90.34 93.08 89.77 C 92.94 91.28 92.79 92.78 92.64 94.29 C 91.46 93.36 90.22 92.52 89.03 91.60 C 89.16 92.02 89.42 92.86 89.55 93.28 C 84.76 93.99 79.95 93.27 75.17 93.88 C 75.36 92.46 75.56 91.04 75.76 89.62 C 76.36 90.31 76.96 91.00 77.56 91.69 C 77.89 91.23 78.55 90.33 78.89 89.88 C 79.44 90.05 80.55 90.39 81.11 90.56 Z" />
<path fill="#6b6b6b" opacity="1.00" d=" M 38.95 90.00 C 42.68 89.80 46.42 89.76 50.16 89.85 C 50.17 91.10 50.19 92.34 50.21 93.58 C 46.74 93.44 43.28 93.52 39.83 93.91 C 39.51 92.61 39.22 91.30 38.95 90.00 Z" />
<path fill="#6b6b6b" opacity="1.00" d=" M 46.62 99.89 C 46.41 97.48 48.58 97.37 48.36 99.85 C 48.91 98.94 49.85 98.67 51.19 99.05 L 51.22 99.77 C 51.65 99.08 54.07 98.18 54.31 99.69 C 55.06 98.83 58.77 98.26 59.31 99.75 C 60.18 98.86 61.60 99.07 62.89 98.98 C 63.40 100.67 62.86 101.46 61.26 101.35 C 61.45 101.76 61.85 102.57 62.05 102.97 C 60.14 102.45 58.95 102.37 57.02 102.76 C 56.97 101.74 56.74 100.90 56.34 100.23 C 56.31 100.88 56.25 102.20 56.21 102.85 C 55.72 102.70 54.73 102.39 54.24 102.23 C 54.14 103.89 51.67 102.85 51.13 102.14 L 51.13 102.94 C 48.87 101.78 47.03 104.14 46.66 101.26 C 46.33 101.28 45.65 101.30 45.32 101.31 C 45.51 101.72 45.89 102.56 46.09 102.97 C 45.56 102.99 44.51 103.01 43.98 103.03 L 43.90 101.94 L 43.11 101.94 C 42.27 103.58 38.20 103.12 38.92 99.05 C 41.46 100.59 43.87 97.76 46.62 99.89 Z" />
<path fill="#6b6b6b" opacity="1.00" d=" M 79.03 97.84 C 79.39 99.56 79.75 101.27 80.10 102.99 C 78.82 102.32 77.53 101.65 76.25 100.98 C 76.40 101.51 76.71 102.57 76.86 103.10 C 75.67 102.37 74.47 101.65 73.28 100.93 C 73.37 101.54 73.56 102.77 73.65 103.38 C 72.84 102.29 72.03 101.20 71.22 100.11 C 70.86 101.19 70.50 102.27 70.13 103.35 C 69.98 101.85 69.84 100.34 69.71 98.84 C 72.94 99.41 76.12 99.63 79.03 97.84 Z" />
<path fill="#6b6b6b" opacity="1.00" d=" M 89.35 97.39 C 90.34 98.46 91.33 99.52 92.32 100.59 C 93.41 99.62 94.51 98.65 95.61 97.69 C 95.73 98.17 95.96 99.13 96.08 99.60 C 96.95 99.47 97.81 99.33 98.68 99.19 C 99.10 99.57 99.94 100.31 100.36 100.68 C 99.80 100.81 98.67 101.08 98.11 101.21 C 98.36 101.66 98.84 102.57 99.09 103.02 C 94.14 101.96 88.97 103.16 83.93 102.92 C 83.70 101.69 83.48 100.45 83.27 99.21 C 85.27 98.56 89.29 100.57 89.35 97.39 Z" />
<path fill="#6b6b6b" opacity="1.00" d=" M 112.93 98.09 L 114.07 98.00 C 114.14 98.70 114.30 100.10 114.37 100.81 C 114.52 100.45 114.80 99.74 114.94 99.38 C 118.03 99.16 121.10 98.82 124.14 98.26 C 124.13 99.87 124.13 101.47 124.14 103.08 C 120.22 102.49 116.22 103.08 112.32 102.32 C 111.58 102.94 110.83 103.56 110.09 104.19 C 109.60 103.83 108.62 103.11 108.13 102.75 C 107.62 103.14 106.60 103.91 106.09 104.30 L 106.02 102.89 C 105.22 102.91 103.60 102.95 102.80 102.96 C 102.99 101.66 103.18 100.35 103.37 99.05 C 106.62 99.29 109.89 99.24 113.15 99.39 C 113.09 99.06 112.99 98.42 112.93 98.09 Z" />
<path fill="#6b6b6b" opacity="1.00" d=" M 131.22 103.23 C 131.12 101.40 131.06 99.57 131.05 97.74 C 132.15 98.33 133.25 98.91 134.35 99.50 C 137.18 99.28 140.07 99.55 142.85 98.88 C 142.52 99.85 142.20 100.83 141.88 101.81 C 142.49 102.00 143.70 102.38 144.31 102.58 C 143.89 102.82 143.06 103.29 142.64 103.53 C 141.54 102.65 140.37 101.87 139.28 100.99 C 139.49 101.50 139.91 102.51 140.12 103.02 C 137.79 102.16 135.37 102.69 132.97 102.85 C 132.94 102.08 132.89 100.54 132.86 99.77 C 132.32 100.92 131.77 102.07 131.22 103.23 Z" />
<path fill="#6b6b6b" opacity="1.00" d=" M 11.09 99.47 C 16.17 99.74 21.25 99.71 26.33 99.54 C 26.04 100.25 25.47 101.67 25.19 102.38 C 20.50 102.30 15.77 104.08 11.20 102.58 C 11.16 101.54 11.12 100.50 11.09 99.47 Z" />
<path fill="#6b6b6b" opacity="1.00" d=" M 27.26 99.19 C 27.68 99.37 28.54 99.74 28.96 99.92 C 30.18 98.36 32.36 100.51 34.16 100.05 C 34.09 100.75 33.94 102.16 33.87 102.86 C 31.09 102.26 29.01 102.65 26.15 102.77 C 26.45 101.58 26.98 100.43 27.26 99.19 Z" />
<path fill="#6b6b6b" opacity="1.00" d=" M 127.95 98.97 C 128.53 98.97 129.68 98.99 130.26 99.00 L 130.29 99.94 L 129.05 100.11 C 129.37 100.56 130.00 101.46 130.32 101.91 C 129.73 102.19 128.54 102.77 127.94 103.05 C 127.27 101.52 127.23 100.50 127.95 98.97 Z" />
<path fill="#6b6b6b" opacity="1.00" d=" M 39.34 106.87 C 40.33 107.48 41.33 108.10 42.32 108.71 C 44.51 108.11 46.70 107.50 48.89 106.90 C 48.95 108.58 49.00 110.26 49.05 111.95 C 45.75 111.91 42.45 111.86 39.16 111.82 C 39.22 110.17 39.28 108.52 39.34 106.87 Z" />
<path fill="#6b6b6b" opacity="1.00" d=" M 63.27 117.72 C 66.15 117.22 69.46 118.13 71.98 116.41 C 75.40 116.47 73.07 119.90 75.38 120.32 C 75.50 119.67 75.75 118.38 75.88 117.74 C 79.58 116.90 83.37 117.53 87.13 117.32 C 86.96 118.73 86.78 120.14 86.60 121.55 C 85.67 121.33 83.80 120.88 82.87 120.66 C 82.74 120.26 82.48 119.47 82.35 119.07 C 82.31 119.54 82.22 120.48 82.18 120.95 C 81.03 120.95 80.43 120.30 80.35 119.01 C 80.28 119.54 80.15 120.59 80.08 121.12 C 74.74 121.03 69.39 120.58 64.05 120.97 C 63.79 119.88 63.53 118.80 63.27 117.72 Z" />
<path fill="#6b6b6b" opacity="1.00" d=" M 102.89 116.06 C 103.95 116.56 105.11 117.64 105.85 116.11 C 105.86 116.47 105.86 117.19 105.87 117.55 C 108.16 117.54 110.45 117.38 112.71 116.98 C 112.85 118.42 112.99 119.87 113.12 121.31 C 112.42 120.45 111.73 119.58 111.04 118.72 C 111.03 119.30 111.01 120.46 111.00 121.04 C 108.27 121.05 105.54 121.06 102.81 121.07 C 102.84 119.40 102.86 117.73 102.89 116.06 Z" />
<path fill="#6b6b6b" opacity="1.00" d=" M 39.31 117.33 C 46.14 117.44 52.98 117.40 59.82 117.27 C 59.92 118.57 60.02 119.87 60.12 121.18 C 59.12 120.91 58.11 120.64 57.11 120.38 C 56.64 120.58 55.72 120.99 55.26 121.19 L 55.22 120.47 C 52.82 120.68 50.41 120.87 48.01 121.07 C 47.39 121.67 46.77 122.28 46.15 122.89 C 46.05 122.20 45.86 120.84 45.76 120.15 C 44.75 121.01 43.74 121.86 42.73 122.71 C 41.51 122.04 40.30 121.35 39.10 120.67 C 39.30 119.55 39.76 118.44 39.31 117.33 Z" />
<path fill="#6b6b6b" opacity="1.00" d=" M 89.95 117.79 C 90.92 117.54 91.88 117.29 92.85 117.04 C 92.71 117.47 92.42 118.34 92.28 118.77 C 93.50 118.95 94.07 118.38 93.97 117.06 C 96.59 117.85 99.37 117.53 102.02 117.13 C 101.69 118.00 101.36 118.87 101.03 119.75 L 102.76 120.62 C 101.14 120.77 99.51 120.92 97.89 121.07 C 98.01 120.70 98.27 119.96 98.39 119.60 C 96.04 120.50 93.60 121.11 91.12 121.56 C 90.73 120.30 90.34 119.05 89.95 117.79 Z" />
<path fill="#6b6b6b" opacity="1.00" d=" M 6.95 118.01 C 16.07 118.60 25.20 118.29 34.33 118.13 C 34.19 118.79 33.91 120.11 33.78 120.77 C 24.81 121.30 15.83 121.21 6.85 121.13 C 6.88 120.35 6.93 118.79 6.95 118.01 Z" />
<path fill="#6b6b6b" opacity="1.00" d=" M 92.98 125.00 L 94.00 124.99 C 93.82 126.56 96.26 126.47 96.66 127.71 C 96.32 125.71 97.88 125.94 98.74 126.73 C 99.67 125.31 100.52 125.37 101.30 126.90 C 104.39 124.91 105.24 128.32 103.73 130.76 C 101.95 129.67 100.75 131.31 99.86 130.04 C 98.94 130.27 98.06 130.49 97.21 130.69 C 96.67 130.56 95.58 130.29 95.04 130.16 C 94.31 131.06 93.63 131.02 93.01 130.04 C 91.74 130.19 89.99 131.74 89.67 129.20 C 89.08 130.36 87.57 130.23 86.20 130.33 C 85.75 131.00 85.10 131.51 84.24 131.88 C 84.52 129.19 82.42 130.05 81.67 131.67 C 80.32 130.88 78.46 130.58 76.99 129.87 C 77.09 128.35 78.17 127.64 77.97 126.04 C 78.89 126.37 79.85 126.71 80.87 127.06 C 81.65 125.77 82.42 125.72 83.16 126.90 C 84.97 126.30 86.40 126.09 87.94 126.93 C 88.84 125.39 91.75 126.47 92.89 127.02 C 92.91 126.51 92.96 125.50 92.98 125.00 Z" />
<path fill="#6b6b6b" opacity="1.00" d=" M 111.18 124.74 C 111.52 125.25 112.21 126.27 112.55 126.77 C 112.85 126.63 113.46 126.35 113.76 126.21 C 113.87 126.62 114.07 127.45 114.17 127.86 C 114.39 127.51 114.83 126.82 115.04 126.47 C 116.79 126.53 118.54 126.58 120.29 126.63 C 119.40 128.59 118.49 130.55 117.57 132.51 C 117.19 128.11 111.25 131.43 108.25 130.74 C 108.09 129.28 107.93 127.83 107.78 126.38 C 108.88 126.47 109.98 126.56 111.08 126.66 C 111.10 126.18 111.15 125.22 111.18 124.74 Z" />
<path fill="#6b6b6b" opacity="1.00" d=" M 39.77 125.82 C 40.84 126.26 41.91 126.68 42.99 127.10 L 43.03 125.95 C 44.96 126.26 46.34 127.22 46.65 128.80 C 46.84 125.25 51.62 126.94 54.07 125.98 C 54.07 127.68 54.06 129.38 54.05 131.08 C 53.70 130.63 52.99 129.74 52.64 129.29 C 52.29 129.51 51.58 129.96 51.22 130.18 C 50.96 129.63 50.43 128.54 50.16 127.99 C 49.71 132.47 42.68 129.74 39.18 130.38 C 39.42 128.86 39.51 127.33 39.77 125.82 Z" />
<path fill="#6b6b6b" opacity="1.00" d=" M 54.80 126.87 C 55.33 126.67 56.40 126.26 56.94 126.06 L 57.15 126.92 C 59.06 126.23 60.89 125.73 61.69 127.81 C 62.55 124.72 64.84 127.87 66.92 126.15 C 67.41 126.37 68.40 126.81 68.89 127.03 C 69.36 126.86 70.30 126.53 70.77 126.36 L 70.77 126.95 C 71.10 126.74 71.76 126.32 72.09 126.12 C 72.59 126.31 73.57 126.70 74.07 126.90 C 74.28 128.07 73.09 132.25 71.87 130.04 C 70.93 130.21 70.04 130.45 69.22 130.77 C 68.64 130.60 67.47 130.26 66.89 130.09 C 66.84 129.62 66.74 128.68 66.69 128.22 C 66.43 130.00 64.46 130.85 62.32 130.67 C 61.16 129.79 59.02 130.66 59.68 128.26 C 59.53 129.37 58.94 129.95 57.89 130.00 C 57.83 129.54 57.71 128.64 57.65 128.19 C 57.17 128.76 56.93 129.60 56.92 130.72 C 56.37 130.57 55.27 130.28 54.72 130.14 C 54.74 129.32 54.78 127.69 54.80 126.87 Z" />
<path fill="#6b6b6b" opacity="1.00" d=" M 56.10 135.96 C 59.26 135.40 62.77 136.27 65.60 134.54 C 69.20 136.68 74.68 135.52 78.90 135.23 C 79.24 135.63 79.92 136.44 80.26 136.84 C 80.13 137.62 79.86 139.17 79.73 139.95 C 77.95 139.36 75.09 139.75 75.67 137.01 C 75.49 137.48 75.12 138.41 74.94 138.88 C 73.48 139.18 72.01 139.48 70.56 139.79 C 70.16 139.63 69.37 139.33 68.97 139.17 C 68.52 139.35 67.63 139.71 67.18 139.89 C 65.82 139.33 64.45 138.78 63.08 138.22 C 63.09 138.66 63.12 139.53 63.13 139.96 C 61.27 138.77 59.25 139.33 57.25 139.66 C 56.86 138.43 56.48 137.19 56.10 135.96 Z" />
<path fill="#6b6b6b" opacity="1.00" d=" M 38.81 136.21 C 39.47 135.85 40.78 135.13 41.44 134.77 C 41.75 136.79 42.05 138.82 42.35 140.85 C 41.53 140.81 39.91 140.74 39.10 140.71 C 39.21 140.42 39.45 139.84 39.56 139.56 C 39.31 138.44 39.06 137.33 38.81 136.21 Z" />
<path fill="#6b6b6b" opacity="1.00" d=" M 42.85 135.88 C 44.14 135.41 45.51 135.88 46.70 135.30 C 48.01 137.16 49.53 134.38 50.95 135.96 L 50.98 134.87 C 51.49 134.88 52.52 134.89 53.04 134.90 C 52.86 135.51 52.51 136.72 52.33 137.33 C 52.54 137.75 52.96 138.60 53.17 139.03 C 53.61 138.97 54.48 138.84 54.91 138.78 L 54.92 140.16 C 52.86 140.25 51.27 139.47 50.31 138.22 C 50.73 141.21 47.92 139.32 47.30 138.21 C 47.49 141.69 44.25 138.73 44.36 137.19 C 43.97 137.69 43.19 138.69 42.81 139.19 C 42.82 138.36 42.84 136.70 42.85 135.88 Z" />
<path fill="#6b6b6b" opacity="1.00" d=" M 18.03 136.49 C 20.64 137.11 25.18 134.84 26.16 137.87 C 26.40 137.51 26.88 136.80 27.11 136.44 C 29.40 136.55 31.68 136.45 33.96 136.31 C 34.00 137.02 34.09 138.44 34.13 139.15 C 28.51 139.07 22.87 139.22 17.27 139.74 C 17.52 138.66 17.78 137.57 18.03 136.49 Z" />
<path fill="#6b6b6b" opacity="1.00" d=" M 3.93 143.11 C 50.01 143.17 96.09 142.93 142.17 143.23 L 141.39 143.49 C 137.41 144.92 133.13 144.33 129.00 144.36 C 87.32 144.25 45.64 144.47 3.96 144.25 L 3.93 143.11 Z" />
</g>
</svg>
